<svg xmlns="http://www.w3.org/2000/svg" viewBox="21 46 164 136" width="164" height="136">
  <g transform="matrix(1.3760412,0,0,1.3760412,-43.532716,-38.733754)">
    <path d="m 70.9375,77.291016 c -3.347069,0.08829 -7.014922,1.297256 -8.859375,4.277343 -1.296587,2.410763 -1.253069,5.508422 0.062,7.898204 1.602919,2.499455 4.610104,3.495167 7.338763,4.216929 2.806231,0.764843 5.883778,1.149299 8.241519,2.989453 1.897874,1.758661 1.630046,5.223695 -0.581735,6.606355 -2.377045,1.64752 -5.504371,1.48619 -8.169705,0.85967 -2.295299,-0.58632 -4.425092,-1.71684 -6.302951,-3.14874 -0.674908,0.0257 -0.917988,0.86416 -1.398251,1.25621 -0.256854,0.46535 -1.151072,0.89126 -0.750657,1.46056 4.410693,3.47771 10.466862,4.89893 15.931063,3.5033 2.94358,-0.79975 5.717271,-3.05544 6.252463,-6.18384 0.474231,-2.5936 -0.123863,-5.644678 -2.348385,-7.290387 -3.030312,-2.305117 -6.935171,-2.737826 -10.475889,-3.821309 -1.851395,-0.645826 -4.132536,-1.421601 -4.684392,-3.50664 -0.674048,-2.0659 0.354156,-4.676138 2.528562,-5.325646 3.288773,-1.331692 6.992861,-0.533126 10.160329,0.763225 0.60428,0.219375 1.14924,0.678629 1.728897,0.863096 0.583122,-0.158869 0.774125,-0.93 1.194215,-1.343432 0.32836,-0.405187 0.978792,-1.104655 0.188326,-1.408839 C 78.01939,78.058769 74.442981,77.224804 70.9375,77.291016 Z"/>
    <path d="m 102.31668,77.563993 c -3.145485,0.103655 -6.13979,1.145741 -8.656924,3.051407 -2.695586,2.069051 -4.719103,5.040272 -5.428062,8.382891 -1.000309,4.56354 -0.06269,9.679242 3.071317,13.241009 2.617657,3.11433 6.546569,5.04831 10.609599,5.2383 3.04431,0.20674 6.16863,-0.32479 8.88508,-1.82512 4.25479,-2.32739 7.27766,-6.845553 7.55337,-11.717606 0.35761,-4.092913 -0.83648,-8.407582 -3.70024,-11.42563 -2.71051,-3.028795 -6.68291,-4.86452 -10.74906,-4.943502 -0.52813,-0.02286 -1.05681,-0.01732 -1.58508,-0.0017 z m 0.8305,2.899176 c 3.57986,-0.07664 7.07768,1.707882 9.23312,4.546618 3.47158,4.359468 3.38649,11.161507 -0.27667,15.385663 -2.16702,2.66102 -5.54965,4.27915 -8.99058,4.20638 -3.245203,0.0257 -6.477983,-1.35461 -8.6327,-3.79617 -3.425251,-3.673437 -4.090204,-9.511738 -1.80111,-13.942862 1.779323,-3.52775 5.411303,-6.09638 9.38378,-6.355912 0.36033,-0.03455 0.72237,-0.04313 1.08416,-0.04373 z"/>
    <path d="m 124.97853,77.550421 16.0045,-2e-6 c 10.73583,1.095575 9.50798,11.733431 4.09872,14.247945 9.17333,2.624049 7.45524,15.679236 -3.14939,15.679236 h -16.95383 v -2.89891 c 0,0 11.33813,-0.004 16.38681,-0.0141 9.20727,0 9.11466,-11.033639 -1.35816,-11.033639 H 124.97853 V 90.627349 H 139.812 c 7.69328,0 9.31382,-10.173288 0.19518,-10.173288 h -15.02865 z"/>
    <path d="m 62.879059,115.48048 h 2.903651 l 19.003145,24.08723 v -24.08723 h 2.903649 v 30.10649 H 84.785855 L 65.78271,121.47682 v 24.11015 h -2.903651 z"/>
    <rect width="22.87159" height="2.9414499" x="95.74263" y="142.64552"/>
    <rect width="22.87159" height="2.9414499" x="95.74263" y="128.88737"/>
    <rect width="22.87159" height="2.9414499" x="95.74263" y="115.48048"/>
    <path d="m 124.97818,115.4805 v 2.94142 c 3.21076,-1e-5 6.84957,0 10.27844,0 2e-5,8.48576 1e-5,17.81981 0,27.16527 h 2.94194 v -27.16527 c 3.57249,0 6.9424,0 10.58333,0 v -2.94142 z"/>
    <path d="M 50.092951,65.947341 V 156.17232 H 161.53783 V 65.947341 Z m 2.92437,2.92437 H 158.61346 V 153.24795 H 53.017321 Z"/>
  </g>
</svg>
